<svg width="800" height="800" viewBox="0 0 800 800" fill="none" xmlns="http://www.w3.org/2000/svg">
<rect width="800" height="800" rx="54" fill="url(#paint0_linear_17_15)"/>
<g filter="url(#filter0_d_17_15)">
<path d="M193.784 525.206L191.299 539.181H161.693L159.001 554.813H181.154L178.67 568.27H156.517L151.341 597.877H133.639L146.475 525.206H193.784ZM257.436 540.113L247.291 597.877H229.589L230.934 590.009C228.657 592.563 225.862 594.633 222.549 596.221C219.306 597.739 215.821 598.498 212.094 598.498C206.297 598.498 201.742 596.876 198.429 593.633C195.117 590.32 193.46 585.731 193.46 579.864C193.46 577.656 193.633 575.655 193.978 573.86L199.982 540.113H217.58L212.094 571.479C211.887 572.584 211.783 573.653 211.783 574.689C211.783 577.587 212.577 579.83 214.164 581.417C215.821 582.936 218.098 583.695 220.997 583.695C224.309 583.695 227.104 582.729 229.382 580.796C231.728 578.795 233.281 575.965 234.04 572.308L239.734 540.113H257.436ZM305.451 539.492C311.248 539.492 315.803 541.114 319.116 544.357C322.428 547.601 324.085 552.121 324.085 557.918C324.085 559.851 323.878 561.921 323.463 564.129L317.459 597.877H299.861L305.451 566.51C305.658 565.337 305.762 564.302 305.762 563.405C305.762 560.506 304.933 558.263 303.277 556.676C301.69 555.089 299.447 554.295 296.548 554.295C293.098 554.295 290.199 555.365 287.853 557.504C285.506 559.644 283.988 562.646 283.298 566.51V565.993L277.708 597.877H260.006L270.151 540.113H287.853L286.507 547.877C288.784 545.323 291.545 543.287 294.788 541.769C298.101 540.251 301.655 539.492 305.451 539.492ZM331.417 568.891C332.452 562.956 334.488 557.746 337.524 553.26C340.561 548.774 344.219 545.323 348.497 542.908C352.776 540.492 357.297 539.285 362.059 539.285C365.854 539.285 369.167 540.078 371.996 541.666C374.895 543.253 377 545.392 378.311 548.084L383.073 521.272H400.775L387.214 597.877H369.512L370.961 589.595C368.753 592.356 365.992 594.564 362.68 596.221C359.367 597.877 355.675 598.705 351.603 598.705C347.531 598.705 343.908 597.773 340.733 595.91C337.628 594.047 335.178 591.39 333.384 587.939C331.658 584.488 330.796 580.451 330.796 575.827C330.796 573.688 331.003 571.376 331.417 568.891ZM374.688 568.995C374.895 567.753 374.999 566.614 374.999 565.579C374.999 562.197 373.998 559.54 371.996 557.608C370.064 555.675 367.58 554.709 364.543 554.709C361.023 554.709 357.814 555.986 354.916 558.539C352.017 561.024 350.188 564.475 349.429 568.891C349.222 570.134 349.119 571.272 349.119 572.308C349.119 575.689 350.085 578.381 352.017 580.382C354.019 582.314 356.503 583.281 359.471 583.281C362.99 583.281 366.199 582.004 369.098 579.45C371.996 576.897 373.86 573.412 374.688 568.995ZM444.062 584.419H467.251L464.87 597.877H423.98L436.816 525.206H454.518L444.062 584.419ZM499.711 598.705C494.742 598.705 490.325 597.704 486.46 595.703C482.596 593.702 479.593 590.872 477.454 587.214C475.384 583.557 474.348 579.312 474.348 574.481C474.348 567.925 475.901 561.956 479.007 556.573C482.112 551.189 486.391 546.98 491.843 543.943C497.295 540.838 503.369 539.285 510.063 539.285C515.032 539.285 519.449 540.32 523.313 542.39C527.247 544.392 530.284 547.221 532.423 550.879C534.563 554.537 535.632 558.781 535.632 563.612C535.632 570.237 534.045 576.241 530.87 581.624C527.765 586.938 523.451 591.114 517.93 594.15C512.478 597.187 506.405 598.705 499.711 598.705ZM502.195 583.488C505.094 583.488 507.682 582.625 509.959 580.9C512.306 579.105 514.1 576.828 515.342 574.067C516.654 571.238 517.309 568.305 517.309 565.268C517.309 561.818 516.378 559.161 514.514 557.297C512.651 555.434 510.304 554.502 507.475 554.502C504.507 554.502 501.885 555.399 499.607 557.194C497.399 558.919 495.674 561.196 494.431 564.026C493.189 566.855 492.568 569.823 492.568 572.929C492.568 576.31 493.465 578.933 495.259 580.796C497.054 582.591 499.366 583.488 502.195 583.488ZM568.108 581.314L587.984 540.113H606.928L576.183 597.877H554.237L543.988 540.113H562.829L568.108 581.314ZM640.052 539.285C647.506 539.285 653.406 541.321 657.754 545.392C662.171 549.395 664.379 554.882 664.379 561.852C664.379 564.129 664.207 566.165 663.862 567.96C663.586 569.547 663.172 571.238 662.62 573.032H622.557C622.488 573.446 622.454 574.102 622.454 574.999C622.454 578.036 623.282 580.348 624.938 581.935C626.595 583.522 628.803 584.316 631.564 584.316C635.98 584.316 639.362 582.452 641.709 578.726H660.549C658.065 584.592 654.027 589.388 648.437 593.115C642.847 596.842 636.567 598.705 629.597 598.705C622.143 598.705 616.174 596.635 611.688 592.494C607.271 588.353 605.063 582.729 605.063 575.62C605.063 573.481 605.27 571.272 605.684 568.995C606.719 562.991 608.858 557.746 612.102 553.26C615.346 548.774 619.383 545.323 624.214 542.908C629.045 540.492 634.324 539.285 640.052 539.285ZM646.47 564.026C646.609 563.06 646.678 562.404 646.678 562.059C646.678 559.299 645.815 557.194 644.09 555.744C642.364 554.226 640.087 553.467 637.257 553.467C634.221 553.467 631.529 554.399 629.183 556.262C626.905 558.056 625.249 560.644 624.214 564.026H646.47Z" fill="white"/>
</g>
<path d="M521.009 172.69H209.831V362.876H521.009V172.69Z" fill="white"/>
<path d="M209.831 233.212V172.69H270.353L209.831 233.212ZM555.597 241.833V207.296H521.009V172.69H460.521L521.043 233.212V302.355L460.521 362.876H270.336L209.831 302.355V362.876H244.42V397.431H278.991V432.019H590.169V241.833H555.597Z" fill="#CFDAED"/>
<path d="M209.831 233.212L270.353 172.69M209.831 302.355L270.353 362.876M521.009 233.212L460.521 172.69M521.009 302.355L460.504 362.876M521.009 172.69H209.831V362.876H521.009V172.69Z" stroke="#092F63" stroke-width="16.9054" stroke-linecap="round" stroke-linejoin="round"/>
<path d="M555.597 207.277V397.429H244.402" stroke="#092F63" stroke-width="16.9054" stroke-linecap="round" stroke-linejoin="round"/>
<path d="M590.169 241.835V432.02H278.991M400 241.835H343.824L330.857 259.146L343.824 276.44H387.034L400 293.734L387.034 311.012H330.857M365.429 241.835V224.574M365.429 328.289V310.978" stroke="#092F63" stroke-width="16.9054" stroke-linecap="round" stroke-linejoin="round"/>
<path d="M365.42 328.297C474.585 284.223 444.47 169.18 365.42 219.978C286.37 169.18 256.256 284.223 365.42 328.297Z" fill="white" stroke="#092F63" stroke-width="20.1436"/>
<path d="M372.349 257.191C372.52 254.883 371.687 253.388 369.849 252.704L368.118 262.641C371.195 263.538 373.546 264.329 375.17 265.013C376.837 265.654 378.311 266.701 379.593 268.154C380.918 269.564 381.581 271.466 381.581 273.86C381.581 274.33 381.495 275.163 381.324 276.36C380.94 278.711 379.957 280.89 378.375 282.899C376.794 284.865 374.7 286.489 372.093 287.771C369.528 289.011 366.601 289.695 363.31 289.823L362.412 295.016H358.373L359.271 289.759C355.21 289.374 352.005 288.22 349.654 286.297C347.304 284.331 346.128 281.66 346.128 278.283C346.128 277.343 346.171 276.638 346.257 276.168H357.924C357.668 278.817 358.63 280.463 360.809 281.104L362.604 270.975C359.698 270.205 357.39 269.479 355.681 268.795C354.014 268.111 352.518 267.043 351.193 265.59C349.911 264.136 349.27 262.213 349.27 259.82C349.27 258.922 349.355 258.046 349.526 257.191C350.21 253.302 352.219 250.182 355.552 247.831C358.886 245.438 362.839 244.113 367.413 243.857L368.31 238.664H372.349L371.451 243.857C375.512 244.199 378.653 245.352 380.876 247.319C383.098 249.242 384.209 251.913 384.209 255.332C384.209 255.717 384.166 256.337 384.081 257.191H372.349ZM361.194 256.678C361.151 256.849 361.13 257.106 361.13 257.448C361.13 259.072 362.198 260.354 364.335 261.294L365.874 252.383C364.635 252.597 363.587 253.067 362.733 253.794C361.921 254.52 361.408 255.482 361.194 256.678ZM369.785 276.745C369.827 276.574 369.849 276.339 369.849 276.039C369.849 274.373 368.716 273.112 366.451 272.257L364.848 281.296C366.173 281.083 367.263 280.57 368.118 279.758C369.015 278.946 369.571 277.941 369.785 276.745Z" fill="#092F63"/>
<defs>
<filter id="filter0_d_17_15" x="133.639" y="521.272" width="559.441" height="98.1329" filterUnits="userSpaceOnUse" color-interpolation-filters="sRGB">
<feFlood flood-opacity="0" result="BackgroundImageFix"/>
<feColorMatrix in="SourceAlpha" type="matrix" values="0 0 0 0 0 0 0 0 0 0 0 0 0 0 0 0 0 0 127 0" result="hardAlpha"/>
<feOffset dx="20" dy="12"/>
<feGaussianBlur stdDeviation="4.35"/>
<feComposite in2="hardAlpha" operator="out"/>
<feColorMatrix type="matrix" values="0 0 0 0 0.0352941 0 0 0 0 0.184314 0 0 0 0 0.388235 0 0 0 1 0"/>
<feBlend mode="normal" in2="BackgroundImageFix" result="effect1_dropShadow_17_15"/>
<feBlend mode="normal" in="SourceGraphic" in2="effect1_dropShadow_17_15" result="shape"/>
</filter>
<linearGradient id="paint0_linear_17_15" x1="6.22469e-06" y1="21.4793" x2="800" y2="800" gradientUnits="userSpaceOnUse">
<stop stop-color="#2256D5"/>
<stop offset="1" stop-color="#163285"/>
</linearGradient>
</defs>
</svg>
