<svg width="398" height="278" viewBox="0 0 398 278" fill="none" xmlns="http://www.w3.org/2000/svg">
<path d="M320.377 9.40845H9.19958V199.594H320.377V9.40845Z" fill="white"/>
<path d="M9.19958 69.9297V9.40845H69.7209L9.19958 69.9297ZM354.965 78.5515V44.0138H320.377V9.40845H259.89L320.411 69.9297V139.073L259.89 199.594H69.704L9.19958 139.073V199.594H43.788V234.149H78.3595V268.737H389.537V78.5515H354.965Z" fill="#CFDAED"/>
<path d="M9.19958 69.9297L69.7209 9.40845M9.19958 139.073L69.7209 199.594M320.377 69.9297L259.889 9.40845M320.377 139.073L259.873 199.594M320.377 9.40845H9.19958V199.594H320.377V9.40845Z" stroke="#092F63" stroke-width="16.9054" stroke-linecap="round" stroke-linejoin="round"/>
<path d="M354.965 43.9949V234.147H43.7706" stroke="#092F63" stroke-width="16.9054" stroke-linecap="round" stroke-linejoin="round"/>
<path d="M389.537 78.5529V268.738H78.3597M199.368 78.5529H143.192L130.225 95.864L143.192 113.158H186.402L199.368 130.452L186.402 147.73H130.225M164.797 78.5529V61.2925M164.797 165.007V147.696" stroke="#092F63" stroke-width="16.9054" stroke-linecap="round" stroke-linejoin="round"/>
<path d="M164.788 165.015C273.953 120.941 243.839 5.89845 164.788 56.6963C85.7381 5.89845 55.6238 120.941 164.788 165.015Z" fill="white" stroke="#092F63" stroke-width="20.1436"/>
<path d="M171.717 93.9093C171.888 91.6014 171.055 90.1055 169.217 89.4217L167.486 99.3586C170.563 100.256 172.914 101.047 174.538 101.731C176.205 102.372 177.679 103.419 178.962 104.872C180.287 106.282 180.949 108.184 180.949 110.578C180.949 111.048 180.864 111.881 180.693 113.078C180.308 115.429 179.325 117.608 177.744 119.617C176.162 121.583 174.068 123.207 171.461 124.489C168.896 125.729 165.969 126.413 162.678 126.541L161.78 131.734H157.741L158.639 126.477C154.579 126.092 151.373 124.938 149.023 123.015C146.672 121.049 145.497 118.378 145.497 115.001C145.497 114.061 145.539 113.356 145.625 112.886H157.293C157.036 115.535 157.998 117.181 160.178 117.822L161.973 107.693C159.066 106.923 156.758 106.197 155.049 105.513C153.382 104.829 151.886 103.761 150.561 102.308C149.279 100.854 148.638 98.9312 148.638 96.5378C148.638 95.6403 148.723 94.7641 148.894 93.9093C149.578 90.02 151.587 86.9001 154.921 84.5494C158.254 82.156 162.208 80.8311 166.781 80.5746L167.678 75.3818H171.717L170.82 80.5746C174.88 80.9165 178.021 82.0705 180.244 84.0365C182.466 85.9598 183.577 88.631 183.577 92.0502C183.577 92.4348 183.535 93.0545 183.449 93.9093H171.717ZM160.562 93.3965C160.52 93.5674 160.498 93.8239 160.498 94.1658C160.498 95.7899 161.567 97.0721 163.704 98.0123L165.242 89.1011C164.003 89.3148 162.956 89.785 162.101 90.5115C161.289 91.2381 160.776 92.1998 160.562 93.3965ZM169.153 113.463C169.196 113.292 169.217 113.057 169.217 112.757C169.217 111.091 168.084 109.83 165.819 108.975L164.216 118.014C165.541 117.801 166.631 117.288 167.486 116.476C168.384 115.664 168.939 114.659 169.153 113.463Z" fill="#092F63"/>
</svg>
